Coordinates
version=1
nRows=11
nColumns=42
inDegrees=yes

Units are S.I. units (second, meters, Newtons, ...)
If the header above contains a line with 'inDegrees', this indicates whether rotational values are in degrees (yes) or radians (no).

endheader
time	pelvis_tilt	pelvis_list	pelvis_rotation	pelvis_tx	pelvis_ty	pelvis_tz	hip_flexion_r	hip_adduction_r	hip_rotation_r	knee_angle_r	knee_adduction_r	knee_angle_r_beta	ankle_angle_r	subtalar_angle_r	mtp_angle_r	hip_flexion_l	hip_adduction_l	hip_rotation_l	knee_angle_l	knee_adduction_l	knee_angle_l_beta	ankle_angle_l	subtalar_angle_l	mtp_angle_l	lumbar_extension	lumbar_bending	lumbar_rotation	arm_flex_r	arm_add_r	arm_rot_r	elbow_flex_r	pro_sup_r	wrist_flex_r	wrist_dev_r	arm_flex_l	arm_add_l	arm_rot_l	elbow_flex_l	pro_sup_l	wrist_flex_l	wrist_dev_l
      2.83000000	      2.31534692	      6.48962926	      6.00118665	      0.08232138	      0.99617801	      0.31320210	      8.97130643	     -6.76784654	    -20.38527706	      9.57695535	      0.54604797	      0.16714940	     -1.30952160	      5.41935373	     -7.51702127	    -13.09145043	      1.35302294	      0.11474151	     24.13939107	      3.72124970	      0.42131185	      1.55173113	      4.22539275	     -7.51702127	    -18.31275734	     -7.36614357	     -9.34870311	    -10.39364366	    -12.57226186	     24.84516095	     38.50594237	     90.00000001	      0.00000000	      0.00000000	     12.87284498	    -22.31718428	     14.41015796	     47.51452140	     90.00000001	      0.00000000	      0.00000000
      2.84000000	      2.58560847	      6.83160693	      5.83111039	      0.08934616	      0.99776886	      0.31492730	      8.02838957	     -6.97810645	    -20.40186501	      9.28588866	      0.71032616	      0.16206933	     -0.98868885	      5.71935334	     -7.51682273	    -12.38266904	      1.16221184	      0.51736479	     26.51037708	      4.56298049	      0.46269337	      0.56353442	      3.93957833	     -7.51682273	    -18.70035179	     -7.78151147	     -9.08237664	     -9.82284012	    -12.61345462	     24.80569794	     38.69682516	     90.00000001	      0.00000000	      0.00000000	     12.48339742	    -22.39011832	     14.39204867	     47.38672487	     90.00000001	      0.00000000	      0.00000000
      2.85000000	      2.57507111	      6.66408940	      6.05313651	      0.09628149	      0.99873337	      0.31615747	      7.21168990	     -6.59455840	    -20.81647388	      8.54973246	      0.72606886	      0.14922098	     -0.84631042	      6.29456371	     -7.51632966	    -10.87000168	      0.40213424	      0.56516776	     29.70161346	      5.08770888	      0.51839095	     -0.45624974	      2.66739771	     -7.51632966	    -18.68161409	     -7.57049776	     -9.08871050	     -9.19995263	    -12.73761232	     24.97990735	     38.86057162	     90.00000001	      0.00000000	      0.00000000	     11.81900441	    -22.41557224	     14.31219102	     47.35698724	     90.00000001	      0.00000000	      0.00000000
      2.86000000	      2.73033491	      6.78670379	      6.05700788	      0.10311605	      0.99984550	      0.31752692	      6.31978958	     -6.56481535	    -20.95120323	      8.06585513	      0.86127477	      0.14077573	     -0.51138263	      6.64567255	     -7.51596079	     -9.69178074	      0.00304332	      0.78384347	     32.47270293	      5.66862429	      0.56675558	     -1.32627661	      1.98109750	     -7.51596079	    -18.88815759	     -7.70957002	     -8.91894957	     -8.57783501	    -12.85949330	     25.05034806	     39.09196142	     90.00000001	      0.00000000	      0.00000000	     11.26597411	    -22.45247919	     14.14296892	     47.32080893	     90.00000001	      0.00000000	      0.00000000
      2.87000000	      2.90144729	      6.88536200	      6.02993216	      0.10975921	      1.00088090	      0.31890604	      5.43632537	     -6.53195306	    -21.01272446	      7.59760417	      1.05017944	      0.13260321	     -0.16783630	      6.96431459	     -7.51566795	     -8.46667209	     -0.40529801	      1.00055819	     35.18666502	      6.21917242	      0.61412316	     -2.02550902	      1.31288687	     -7.51566795	    -19.11439692	     -7.83014734	     -8.69807481	     -7.90571784	    -13.00913683	     25.10746372	     39.32509187	     90.00000001	      0.00000000	      0.00000000	     10.72038781	    -22.48863935	     13.92364453	     47.30976435	     90.00000001	      0.00000000	      0.00000000
      2.88000000	      3.23685083	      7.22644235	      5.64477682	      0.11640317	      1.00207443	      0.32084634	      4.59814197	     -6.72825435	    -20.96457000	      7.49446249	      1.13972532	      0.13080305	      0.02483786	      7.15199317	     -7.51549127	     -7.65382757	     -0.55872427	      1.26803110	     37.31567551	      7.01315561	      0.65128140	     -2.39438300	      1.11574204	     -7.51549127	    -19.53018425	     -8.33299773	     -8.13199575	     -7.22434488	    -13.09548423	     25.10248563	     39.53561348	     90.00000001	      0.00000000	      0.00000000	     10.31132973	    -22.53080842	     13.72671591	     47.27750101	     90.00000001	      0.00000000	      0.00000000
      2.89000000	      3.12620057	      6.91540796	      5.87337383	      0.12269617	      1.00232292	      0.32194710	      3.94377002	     -6.16401479	    -21.08834567	      6.72088218	      1.15807131	      0.11730152	      0.30207383	      7.52954556	     -7.51517303	     -5.73389988	     -1.41449599	      1.33555519	     40.36986608	      7.31565722	      0.70458708	     -2.80277969	     -0.22541635	     -7.51517303	    -19.40137225	     -7.98305066	     -8.06921606	     -6.45982267	    -13.34103301	     25.37169869	     39.76180812	     90.00000001	      0.00000000	      0.00000000	      9.53795830	    -22.50536653	     13.17509805	     47.38316166	     90.00000001	      0.00000000	      0.00000000
      2.90000000	      3.13768251	      6.80914100	      5.71007713	      0.12887029	      1.00269489	      0.32360696	      3.44290814	     -5.82605542	    -21.00334963	      6.41814679	      1.10974500	      0.11201779	      0.42903885	      7.73226994	     -7.51478205	     -4.18448795	     -2.05883853	      1.51653194	     42.76648425	      7.93400111	      0.74641596	     -2.86467921	     -1.07660493	     -7.51478205	    -19.40998305	     -7.97846278	     -7.65484074	     -5.63345669	    -13.59632169	     25.72347984	     39.91308341	     90.00000001	      0.00000000	      0.00000000	      8.88731527	    -22.44977570	     12.47855584	     47.41046034	     90.00000001	      0.00000000	      0.00000000
      2.91000000	      3.18388484	      6.76252716	      5.52997240	      0.13497883	      1.00310642	      0.32523328	      2.89196002	     -5.57099364	    -20.89672012	      6.10668161	      1.10543956	      0.10658170	      0.58680990	      7.87208256	     -7.51432882	     -2.69757467	     -2.61004012	      1.63077198	     44.85343670	      8.43684989	      0.78284015	     -2.80936228	     -1.88393578	     -7.51432882	    -19.47430854	     -8.04261139	     -7.23281841	     -4.77030373	    -13.83367234	     26.07283024	     40.03393109	     90.00000001	      0.00000000	      0.00000000	      8.24872969	    -22.38633797	     11.75510817	     47.43222309	     90.00000001	      0.00000000	      0.00000000
      2.92000000	      3.29398909	      6.77528168	      5.35255692	      0.14105811	      1.00359059	      0.32669267	      2.24048052	     -5.39632513	    -20.79376765	      5.75732264	      1.13483494	      0.10048424	      0.81857975	      8.04208304	     -7.51393122	     -1.30743287	     -3.03043918	      1.61357385	     46.61938175	      8.70327040	      0.81366171	     -2.60985667	     -2.62693397	     -7.51393122	    -19.60982464	     -8.15354862	     -6.81729563	     -3.88527009	    -14.04947362	     26.30952042	     40.10907254	     90.00000001	      0.00000000	      0.00000000	      7.63384236	    -22.34680886	     11.13499620	     47.43005040	     90.00000001	      0.00000000	      0.00000000
      2.93000000	      3.38622351	      6.76585276	      5.14798755	      0.14705631	      1.00400609	      0.32817588	      1.63791820	     -5.20520714	    -20.67106930	      5.44522333	      1.16085958	      0.09503708	      1.01802343	      8.19923561	     -7.51349536	      0.10059386	     -3.46716055	      1.51417071	     48.10843822	      8.90092106	      0.83965064	     -2.28200119	     -3.34569575	     -7.51349536	    -19.71869532	     -8.25757349	     -6.37616901	     -2.95116778	    -14.27317129	     26.61089618	     40.12909580	     90.00000001	      0.00000000	      0.00000000	      7.00738879	    -22.27826592	     10.41651808	     47.39991596	     90.00000001	      0.00000000	      0.00000000
